<svg width="85" height="39" fill="none" xmlns="http://www.w3.org/2000/svg"><rect x="1" y="1" width="83" height="37" rx="8" fill="#0A382E" stroke="#fff" stroke-width="2"/><path d="M16.98 25v-.7h.84v-8.82h-.84v-.7h6.58v2.212h-.784v-1.386h-3.948v3.78h4.032v.84h-4.032v3.948h4.228v-1.386h.784V25h-6.86zm8.682-7.308v-.7h1.498l.238.896c.942-.728 1.932-1.092 2.968-1.092.821 0 1.409.205 1.764.616.364.401.546 1.031.546 1.89V24.3h.84v.7h-2.66v-.7h.84v-5.012c0-.588-.117-1.013-.35-1.274-.224-.261-.602-.392-1.134-.392-.952 0-1.862.345-2.73 1.036V24.3h.84v.7h-2.66v-.7h.84v-6.608h-.84zm11.163-.7v.7h-.798l2.338 6.23 2.324-6.23h-.784v-.7h2.324v.7h-.546L38.897 25h-1.064l-2.786-7.308h-.546v-.7h2.324zm9.804 7.378c.448 0 .826-.065 1.134-.196.317-.14.555-.303.714-.49.168-.196.299-.457.392-.784.093-.336.15-.635.168-.896.019-.27.028-.607.028-1.008s-.01-.733-.028-.994a4.381 4.381 0 00-.168-.896c-.093-.336-.224-.597-.392-.784-.159-.196-.397-.36-.714-.49-.308-.14-.686-.21-1.134-.21-.448 0-.83.07-1.148.21-.308.13-.546.294-.714.49-.159.187-.285.448-.378.784-.093.327-.15.625-.168.896a14.47 14.47 0 00-.028.994c0 .401.01.737.028 1.008.019.261.075.56.168.896.093.327.22.588.378.784.168.187.406.35.714.49.317.13.7.196 1.148.196zm0 .826c-.43 0-.817-.042-1.162-.126a3.75 3.75 0 01-.868-.322 2.39 2.39 0 01-.616-.532 3.305 3.305 0 01-.406-.658 3.928 3.928 0 01-.224-.784 7.99 7.99 0 01-.112-.854c-.019-.27-.028-.579-.028-.924 0-.345.01-.649.028-.91.019-.27.056-.555.112-.854.056-.308.13-.574.224-.798.103-.224.238-.443.406-.658.177-.215.383-.387.616-.518.243-.14.532-.252.868-.336a4.926 4.926 0 011.162-.126c.43 0 .812.042 1.148.126.345.084.635.196.868.336.243.13.448.303.616.518.177.215.313.434.406.658.103.224.182.49.238.798.056.299.093.583.112.854.019.261.028.565.028.91 0 .345-.01.653-.028.924a7.964 7.964 0 01-.112.854c-.056.299-.135.56-.238.784a2.617 2.617 0 01-.406.658 2.116 2.116 0 01-.616.532 3.45 3.45 0 01-.868.322 4.75 4.75 0 01-1.148.126zm5.648 2.982v-.7l.826-.07a.905.905 0 00.378-.084.411.411 0 00.182-.14c.037-.056.079-.15.126-.28l.644-1.722-2.856-7.49h-.546v-.7h2.324v.7h-.798l2.338 6.244 2.324-6.244h-.784v-.7h2.324v.7h-.546l-3.64 9.576c-.122.317-.252.546-.392.686-.14.15-.355.224-.644.224h-1.26zm10.951-2.982c-1.306 0-2.193-.331-2.66-.994-.457-.672-.686-1.74-.686-3.206 0-.495.019-.92.056-1.274.038-.364.122-.742.252-1.134.131-.392.313-.71.546-.952.234-.243.556-.443.966-.602.411-.159.901-.238 1.47-.238.57 0 1.055.08 1.456.238.411.159.728.36.952.602.234.243.416.56.546.952.131.392.215.77.252 1.134.038.355.056.78.056 1.274v.224h-5.572c.01 1.139.168 1.95.476 2.436.318.476.938.714 1.862.714.84 0 1.419-.159 1.736-.476.318-.327.504-.798.56-1.414l.812.042a4.87 4.87 0 01-.196 1.036c-.093.28-.247.555-.462.826-.205.261-.513.462-.924.602-.401.14-.9.21-1.498.21zm-.07-7.574c-.466 0-.858.075-1.176.224-.308.15-.541.369-.7.658-.149.28-.256.57-.322.868a6.772 6.772 0 00-.098 1.078h4.578a6.933 6.933 0 00-.098-1.106 3.017 3.017 0 00-.308-.868 1.39 1.39 0 00-.7-.644c-.308-.14-.7-.21-1.176-.21zm6.59-.63l.307 1.54c.654-1.11 1.634-1.69 2.94-1.736v.938c-1.316.047-2.29.653-2.925 1.82V24.3h1.12v.7h-2.94v-.7h.84v-6.608h-.84v-.7H69.746z" fill="#fff"/></svg>