<svg width="138" height="60" fill="none" xmlns="http://www.w3.org/2000/svg"><g filter="url(#a)"><ellipse cx="66.5" cy="16" rx="62.5" ry="16" fill="#0A382E"/><path d="M66.5.5c17.23 0 32.811 1.789 44.07 4.67 5.634 1.443 10.156 3.152 13.259 5.03 3.133 1.897 4.671 3.871 4.671 5.8 0 1.929-1.538 3.904-4.671 5.8-3.103 1.878-7.625 3.587-13.259 5.03-11.259 2.882-26.84 4.67-44.07 4.67s-32.811-1.788-44.07-4.67c-5.633-1.443-10.156-3.152-13.26-5.03C6.039 19.904 4.5 17.929 4.5 16c0-1.929 1.538-3.903 4.67-5.8 3.104-1.878 7.627-3.587 13.26-5.03C33.689 2.29 49.27.5 66.5.5z" stroke="#fff"/></g><path d="M27.189 15.521c.22.069.42.166.6.293.18.127.334.291.461.491.127.195.225.427.294.696.068.268.102.576.102.923v.527c0 1.7-.85 2.549-2.549 2.549h-5.75V10.497h5.45c1.7 0 2.549.852 2.549 2.556v.19c0 .591-.096 1.075-.286 1.45a1.757 1.757 0 01-.871.829zm-5.37.901v3.106h4.234c.396 0 .681-.093.857-.278.176-.186.264-.477.264-.872v-.813c0-.4-.088-.691-.264-.872-.176-.18-.461-.27-.857-.27H21.82zm0-4.453v2.989h4.037c.36-.015.62-.113.776-.293.161-.186.241-.47.241-.85v-.688c0-.4-.087-.694-.263-.88-.176-.185-.462-.278-.857-.278H21.82zm10.577-1.472V21h-1.502V10.497h1.502zm4.204 0V19.5h5.398V21h-6.9V10.497H36.6zm8.701 0V19.5H50.7V21h-6.9V10.497h1.502zm7.2 0h7.654V12h-6.153V15h5.252v1.502h-5.252v2.995h6.153V21H52.5V10.497zm9.001 0h8.401V12h-3.45V21h-1.5v-9.002h-3.45v-1.5zm9.302 0h8.401V12h-3.45V21h-1.501v-9.002h-3.45v-1.5zm10.203 0h7.654V12h-6.153V15h5.252v1.502h-5.252v2.995h6.153V21h-7.654V10.497zm18.2 3.75c0 1.465-.624 2.3-1.874 2.505L99.31 21h-1.663L95.7 16.803h-3.288V21h-1.502V10.497h5.75c1.699 0 2.548.852 2.548 2.556v1.194zm-6.796 1.055h4.167c.4 0 .689-.088.864-.264.176-.176.264-.464.264-.864v-1.047c0-.4-.088-.689-.264-.865-.175-.176-.463-.264-.864-.264h-4.167v3.304zm10.81-4.805V21h-1.501V10.497h1.501zm2.703 0h7.654V12h-6.153V15h5.252v1.502h-5.252v2.995h6.153V21h-7.654V10.497z" fill="#fff"/><defs><filter id="a" x="0" y="0" width="133" height="40" filterUnits="userSpaceOnUse" color-interpolation-filters="sRGB"><feFlood flood-opacity="0" result="BackgroundImageFix"/><feColorMatrix in="SourceAlpha" values="0 0 0 0 0 0 0 0 0 0 0 0 0 0 0 0 0 0 127 0" result="hardAlpha"/><feOffset dy="4"/><feGaussianBlur stdDeviation="2"/><feComposite in2="hardAlpha" operator="out"/><feColorMatrix values="0 0 0 0 0 0 0 0 0 0 0 0 0 0 0 0 0 0 0.25 0"/><feBlend in2="BackgroundImageFix" result="effect1_dropShadow_158_96"/><feBlend in="SourceGraphic" in2="effect1_dropShadow_158_96" result="shape"/></filter></defs></svg>