<svg width="169" height="53" fill="none" xmlns="http://www.w3.org/2000/svg"><rect x=".5" y=".5" width="168" height="52" rx="8.5" fill="#0A382E" stroke="#fff"/><path d="M20.62 28.15h-1.792v3.15h1.12v.7H16.98v-.7h.84v-8.82h-.84v-.7H20.62c.663 0 1.209.084 1.638.252.43.168.742.415.938.742.196.327.327.653.392.98.065.327.098.733.098 1.218 0 .373-.019.695-.056.966-.028.27-.103.555-.224.854-.121.299-.29.541-.504.728-.215.177-.518.327-.91.448-.383.121-.84.182-1.372.182zm-1.792-.826h1.792c.448 0 .812-.056 1.092-.168.29-.112.5-.285.63-.518.14-.243.229-.485.266-.728.047-.243.07-.555.07-.938 0-.383-.023-.695-.07-.938a1.965 1.965 0 00-.266-.728c-.13-.243-.34-.42-.63-.532-.28-.112-.644-.168-1.092-.168h-1.792v4.718zm6.393-5.124v-.7h1.82v9.8h.84v.7h-2.66v-.7h.84v-9.1h-.84zm5.174 1.792h.98v5.712c0 .597.116 1.027.35 1.288.242.252.658.378 1.246.378.998 0 1.941-.406 2.828-1.218v-5.46h-.84v-.7h1.82V31.3h.84v.7H36.12l-.28-1.022c-.98.812-2.007 1.218-3.08 1.218-.878 0-1.494-.196-1.848-.588-.346-.392-.518-1.022-.518-1.89v-5.026h-.84v-.7h.84zm14.018 0h.714v2.828h-.644c-.037-.476-.107-.859-.21-1.148-.103-.29-.257-.509-.462-.658a1.577 1.577 0 00-.686-.308 4.831 4.831 0 00-1.008-.084c-.57 0-.99.126-1.26.378-.261.252-.392.583-.392.994 0 .383.107.677.322.882.224.196.611.364 1.162.504l1.092.294c.859.233 1.47.509 1.834.826.373.308.56.793.56 1.456 0 1.493-.92 2.24-2.758 2.24-1.167 0-1.993-.41-2.478-1.232L40.227 32h-.714v-2.828h.644c.159 1.465.957 2.198 2.394 2.198 1.27 0 1.904-.471 1.904-1.414 0-.336-.107-.607-.322-.812-.215-.205-.593-.378-1.134-.518l-1.092-.294c-.868-.224-1.489-.49-1.862-.798-.373-.317-.56-.826-.56-1.526 0-.663.22-1.195.658-1.596.448-.41 1.106-.616 1.974-.616 1.11 0 1.88.336 2.31 1.008l-.014-.812zM56.978 32l-.182-.84c-.784.69-1.629 1.036-2.534 1.036-.523 0-.975-.08-1.358-.238-.373-.159-.667-.36-.882-.602-.205-.243-.369-.56-.49-.952a5.88 5.88 0 01-.238-1.12 17.076 17.076 0 01-.042-1.288c0-.495.014-.92.042-1.274.037-.364.117-.742.238-1.134.13-.392.303-.71.518-.952.215-.243.513-.443.896-.602.392-.159.854-.238 1.386-.238.747 0 1.521.168 2.324.504v-2.1h-.84v-.7h1.82v9.8h.84v.7h-1.498zm-2.548-.63c.803 0 1.545-.313 2.226-.938v-5.334a5.11 5.11 0 00-2.184-.476c-.457 0-.84.084-1.148.252a1.576 1.576 0 00-.686.728c-.15.317-.257.663-.322 1.036a9.338 9.338 0 00-.084 1.358c0 1.11.15 1.95.448 2.52.299.57.882.854 1.75.854zm9.209.826c-1.307 0-2.194-.331-2.66-.994-.458-.672-.687-1.74-.687-3.206 0-.495.02-.92.056-1.274.038-.364.122-.742.252-1.134.131-.392.313-.71.547-.952.233-.243.555-.443.965-.602.411-.159.901-.238 1.47-.238.57 0 1.055.08 1.456.238.411.159.728.36.953.602.233.243.415.56.546.952.13.392.214.77.251 1.134.038.355.056.78.056 1.274v.224h-5.571c.009 1.139.167 1.95.475 2.436.318.476.939.714 1.863.714.84 0 1.418-.159 1.736-.476.317-.327.504-.798.56-1.414l.812.042a4.876 4.876 0 01-.197 1.036c-.093.28-.247.555-.462.826-.205.261-.513.462-.924.602-.4.14-.9.21-1.497.21zm-.07-7.574c-.467 0-.86.075-1.177.224-.308.15-.54.369-.7.658-.149.28-.256.57-.322.868a6.76 6.76 0 00-.097 1.078h4.577a6.933 6.933 0 00-.097-1.106 3.02 3.02 0 00-.308-.868 1.39 1.39 0 00-.7-.644c-.309-.14-.7-.21-1.177-.21zm16.167 9.856v.7h-2.94v-.7h1.12v-2.842c-.83.373-1.605.56-2.324.56-.532 0-.994-.08-1.386-.238-.383-.159-.681-.36-.896-.602-.215-.243-.388-.56-.518-.952a5.872 5.872 0 01-.238-1.12 17.076 17.076 0 01-.042-1.288c0-.495.014-.92.042-1.274.037-.364.117-.742.238-1.134.13-.392.303-.71.518-.952.215-.243.513-.443.896-.602.392-.159.854-.238 1.386-.238.933 0 1.76.27 2.478.812l.168-.616h1.498v.7h-.84v9.786h.84zm-4.004-3.108c.756 0 1.484-.182 2.184-.546v-5.502c-.597-.467-1.325-.7-2.184-.7-.373 0-.695.056-.966.168-.27.112-.49.261-.658.448a2.05 2.05 0 00-.378.742 5.074 5.074 0 00-.196.924c-.028.308-.042.672-.042 1.092 0 .541.023.999.07 1.372.056.364.159.71.308 1.036.158.327.392.57.7.728.308.159.695.238 1.162.238zm6.52-7.378h.98v5.712c0 .597.117 1.027.35 1.288.243.252.658.378 1.246.378.999 0 1.942-.406 2.828-1.218v-5.46h-.84v-.7h1.82V31.3h.84v.7h-1.498l-.28-1.022c-.98.812-2.006 1.218-3.08 1.218-.877 0-1.493-.196-1.848-.588-.345-.392-.518-1.022-.518-1.89v-5.026h-.84v-.7h.84zm12.394 8.204c-1.306 0-2.193-.331-2.66-.994-.457-.672-.686-1.74-.686-3.206 0-.495.019-.92.056-1.274.038-.364.122-.742.252-1.134.131-.392.313-.71.546-.952.234-.243.556-.443.966-.602.411-.159.901-.238 1.47-.238.57 0 1.055.08 1.456.238.411.159.728.36.952.602.234.243.416.56.546.952.131.392.215.77.252 1.134.038.355.056.78.056 1.274v.224H92.28c.01 1.139.168 1.95.476 2.436.318.476.938.714 1.862.714.84 0 1.419-.159 1.736-.476.318-.327.504-.798.56-1.414l.812.042a4.876 4.876 0 01-.196 1.036c-.093.28-.247.555-.462.826-.205.261-.513.462-.924.602-.401.14-.9.21-1.498.21zm-.07-7.574c-.466 0-.858.075-1.176.224-.308.15-.541.369-.7.658-.149.28-.256.57-.322.868a6.76 6.76 0 00-.098 1.078h4.578a6.933 6.933 0 00-.098-1.106 3.02 3.02 0 00-.308-.868 1.39 1.39 0 00-.7-.644c-.308-.14-.7-.21-1.176-.21zm10.062-.63h.714v2.828h-.644c-.038-.476-.108-.859-.21-1.148-.103-.29-.257-.509-.462-.658a1.58 1.58 0 00-.686-.308 4.831 4.831 0 00-1.008-.084c-.57 0-.99.126-1.26.378-.262.252-.392.583-.392.994 0 .383.107.677.322.882.224.196.611.364 1.162.504l1.092.294c.858.233 1.47.509 1.834.826.373.308.56.793.56 1.456 0 1.493-.92 2.24-2.758 2.24-1.167 0-1.993-.41-2.478-1.232l.028 1.036h-.715v-2.828h.645c.158 1.465.956 2.198 2.394 2.198 1.269 0 1.904-.471 1.904-1.414 0-.336-.108-.607-.322-.812-.215-.205-.593-.378-1.134-.518l-1.092-.294c-.868-.224-1.489-.49-1.862-.798-.374-.317-.56-.826-.56-1.526 0-.663.219-1.195.658-1.596.448-.41 1.106-.616 1.974-.616 1.11 0 1.88.336 2.31 1.008l-.014-.812zm2.497.7v-.7h1.26v-1.596l.98-.196v1.792h1.47v.7h-1.47v5.558c0 .43.056.733.168.91.121.177.317.266.588.266.186 0 .443-.037.77-.112l.126.686c-.467.13-.868.196-1.204.196-.252 0-.472-.037-.658-.112a1.17 1.17 0 01-.42-.28 1.247 1.247 0 01-.224-.448 2.997 2.997 0 01-.112-.518 9.71 9.71 0 01-.014-.588v-5.558h-1.26zm5.575 0v-.7h1.82V31.3h.84v.7h-2.66v-.7h.84v-6.608h-.84zm1.33-2.1c-.177 0-.312-.042-.406-.126a.503.503 0 01-.168-.252 1.977 1.977 0 01-.028-.364c0-.159.01-.28.028-.364a.499.499 0 01.168-.266c.094-.084.229-.126.406-.126.187 0 .327.042.42.126a.47.47 0 01.182.266c.019.084.028.205.028.364 0 .233-.037.415-.112.546-.074.13-.247.196-.518.196zm6.431 8.778c.448 0 .826-.065 1.134-.196.317-.14.555-.303.714-.49.168-.196.299-.457.392-.784.093-.336.149-.635.168-.896.019-.27.028-.607.028-1.008s-.009-.733-.028-.994a4.436 4.436 0 00-.168-.896c-.093-.336-.224-.597-.392-.784-.159-.196-.397-.36-.714-.49-.308-.14-.686-.21-1.134-.21-.448 0-.831.07-1.148.21-.308.13-.546.294-.714.49-.159.187-.285.448-.378.784a4.436 4.436 0 00-.168.896c-.019.261-.028.593-.028.994s.009.737.028 1.008c.019.261.075.56.168.896.093.327.219.588.378.784.168.187.406.35.714.49.317.13.7.196 1.148.196zm0 .826c-.429 0-.817-.042-1.162-.126a3.755 3.755 0 01-.868-.322 2.388 2.388 0 01-.616-.532 3.32 3.32 0 01-.406-.658 3.948 3.948 0 01-.224-.784 8.068 8.068 0 01-.112-.854 13.36 13.36 0 01-.028-.924c0-.345.009-.649.028-.91.019-.27.056-.555.112-.854.056-.308.131-.574.224-.798a3.32 3.32 0 01.406-.658 2.17 2.17 0 01.616-.518c.243-.14.532-.252.868-.336a4.926 4.926 0 011.162-.126c.429 0 .812.042 1.148.126.345.084.635.196.868.336.243.13.448.303.616.518.177.215.313.434.406.658.103.224.182.49.238.798.056.299.093.583.112.854.019.261.028.565.028.91 0 .345-.009.653-.028.924a8.068 8.068 0 01-.112.854 3.36 3.36 0 01-.238.784 2.62 2.62 0 01-.406.658 2.112 2.112 0 01-.616.532 3.45 3.45 0 01-.868.322 4.751 4.751 0 01-1.148.126zm5.241-7.504v-.7h1.498l.238.896c.943-.728 1.932-1.092 2.968-1.092.822 0 1.41.205 1.764.616.364.401.546 1.031.546 1.89V31.3h.84v.7h-2.66v-.7h.84v-5.012c0-.588-.116-1.013-.35-1.274-.224-.261-.602-.392-1.134-.392-.952 0-1.862.345-2.73 1.036V31.3h.84v.7h-2.66v-.7h.84v-6.608h-.84zm14.65-.7h.714v2.828h-.644c-.037-.476-.107-.859-.21-1.148-.103-.29-.257-.509-.462-.658a1.575 1.575 0 00-.686-.308 4.831 4.831 0 00-1.008-.084c-.569 0-.989.126-1.26.378-.261.252-.392.583-.392.994 0 .383.107.677.322.882.224.196.611.364 1.162.504l1.092.294c.859.233 1.47.509 1.834.826.373.308.56.793.56 1.456 0 1.493-.919 2.24-2.758 2.24-1.167 0-1.993-.41-2.478-1.232l.028 1.036h-.714v-2.828h.644c.159 1.465.957 2.198 2.394 2.198 1.269 0 1.904-.471 1.904-1.414 0-.336-.107-.607-.322-.812-.215-.205-.593-.378-1.134-.518l-1.092-.294c-.868-.224-1.489-.49-1.862-.798-.373-.317-.56-.826-.56-1.526 0-.663.219-1.195.658-1.596.448-.41 1.106-.616 1.974-.616 1.111 0 1.881.336 2.31 1.008l-.014-.812zm9.107 8.12c.15 0 .271-.023.364-.07a.393.393 0 00.21-.196.78.78 0 00.084-.252c.019-.084.028-.182.028-.294 0-.252-.042-.453-.126-.602-.084-.15-.27-.224-.56-.224-.196 0-.345.047-.448.14a.539.539 0 00-.182.294 2.173 2.173 0 00-.028.392c0 .252.042.453.126.602.084.14.262.21.532.21zm.714-4.774l-.224.028-.154 2.044h-.644l-.098-2.66.714-.084c.635-.075 1.12-.261 1.456-.56.336-.299.504-.821.504-1.568 0-.7-.149-1.227-.448-1.582-.298-.364-.83-.546-1.596-.546-1.269 0-1.904.527-1.904 1.582h-.84c0-.784.215-1.381.644-1.792.439-.41 1.144-.616 2.114-.616 1.074 0 1.839.247 2.296.742.458.495.686 1.223.686 2.184 0 .97-.205 1.652-.616 2.044-.401.392-1.031.653-1.89.784z" fill="#fff"/></svg>