<svg width="177" height="47" fill="none" xmlns="http://www.w3.org/2000/svg"><g filter="url(#a)"><path d="M4.313 2.39h24.492v4.805H9.117v9.61h16.805v4.804H9.117v9.586h19.688V36H4.313V2.39zm58.242 12c0 4.688-2 7.36-6 8.016L62.883 36h-5.32l-6.235-13.43H40.805V36H36V2.39h18.398c5.438 0 8.157 2.727 8.157 8.18v3.82zm-21.75 3.376H54.14c1.28 0 2.203-.282 2.765-.844.563-.563.844-1.485.844-2.766v-3.351c0-1.282-.281-2.203-.844-2.766-.562-.562-1.484-.844-2.765-.844H40.805v10.57zm56.343-3.375c0 4.687-2 7.359-6 8.015L97.477 36h-5.32l-6.235-13.43H75.398V36h-4.804V2.39h18.398c5.438 0 8.156 2.727 8.156 8.18v3.82zm-21.75 3.375h13.336c1.282 0 2.204-.282 2.766-.844.563-.563.844-1.485.844-2.766v-3.351c0-1.282-.281-2.203-.844-2.766-.563-.562-1.484-.844-2.766-.844H75.398v10.57zm58.594 13.43c0 .656-.125 1.28-.375 1.874a4.797 4.797 0 01-2.578 2.555 4.612 4.612 0 01-1.851.375h-19.196a4.785 4.785 0 01-1.875-.375 4.858 4.858 0 01-2.555-2.555 4.782 4.782 0 01-.374-1.875v-24c0-.656.124-1.273.374-1.851a4.524 4.524 0 011.032-1.524 4.857 4.857 0 011.523-1.03 4.542 4.542 0 011.875-.4h19.196a4.38 4.38 0 011.851.4c.594.25 1.109.593 1.547 1.03.437.422.781.93 1.031 1.524.25.578.375 1.195.375 1.851v24zm-24-24v24h19.196v-24h-19.196zm59.203 7.195c0 4.687-2 7.359-6 8.015L169.523 36h-5.32l-6.234-13.43h-10.524V36h-4.804V2.39h18.398c5.438 0 8.156 2.727 8.156 8.18v3.82zm-21.75 3.375h13.336c1.281 0 2.203-.282 2.766-.844.562-.563.844-1.485.844-2.766v-3.351c0-1.282-.282-2.203-.844-2.766-.563-.562-1.485-.844-2.766-.844h-13.336v10.57z" fill="#fff"/></g><path d="M4.313 2.39v-.5h-.5v.5h.5zm24.492 0h.5v-.5h-.5v.5zm0 4.805v.5h.5v-.5h-.5zm-19.688 0v-.5h-.5v.5h.5zm0 9.61h-.5v.5h.5v-.5zm16.805 0h.5v-.5h-.5v.5zm0 4.804v.5h.5v-.5h-.5zm-16.805 0v-.5h-.5v.5h.5zm0 9.586h-.5v.5h.5v-.5zm19.688 0h.5v-.5h-.5v.5zm0 4.805v.5h.5V36h-.5zM4.313 36h-.5v.5h.5V36zm0-33.61v.5h24.492v-1H4.313v.5zm24.492 0h-.5v4.805h1V2.391h-.5zm0 4.805v-.5H9.117v1h19.688v-.5zm-19.688 0h-.5v9.61h1v-9.61h-.5zm0 9.61v.5h16.805v-1H9.117v.5zm16.805 0h-.5v4.804h1v-4.804h-.5zm0 4.804v-.5H9.117v1h16.805v-.5zm-16.805 0h-.5v9.586h1V21.61h-.5zm0 9.586v.5h19.688v-1H9.117v.5zm19.688 0h-.5V36h1v-4.805h-.5zm0 4.805v-.5H4.313v1h24.492V36zM4.313 36h.5V2.39h-1V36h.5zm52.242-13.594l-.081-.493-.65.107.277.597.454-.21zM62.883 36v.5h.784l-.33-.711-.454.211zm-5.32 0l-.454.21.134.29h.32V36zm-6.235-13.43l.454-.21-.135-.29h-.319v.5zm-10.523 0v-.5h-.5v.5h.5zm0 13.43v.5h.5V36h-.5zM36 36h-.5v.5h.5V36zm0-33.61v-.5h-.5v.5h.5zm4.805 15.376h-.5v.5h.5v-.5zm0-10.57v-.5h-.5v.5h.5zm21.75 7.195h-.5c0 2.278-.487 3.999-1.4 5.22-.907 1.21-2.28 1.99-4.181 2.302l.08.493.082.494c2.098-.345 3.726-1.23 4.819-2.69 1.086-1.451 1.6-3.41 1.6-5.82h-.5zm-6 8.015l-.454.211 6.328 13.594.454-.211.453-.211-6.328-13.594-.453.211zM62.883 36v-.5h-5.32v1h5.32V36zm-5.32 0l.453-.21-6.234-13.43-.454.21-.453.21 6.234 13.43.453-.21zm-6.235-13.43v-.5H40.805v1h10.523v-.5zm-10.523 0h-.5V36h1V22.57h-.5zm0 13.43v-.5H36v1h4.805V36zM36 36h.5V2.39h-1V36h.5zm0-33.61v.5h18.398v-1H36v.5zm18.398 0v.5c2.642 0 4.531.662 5.764 1.899 1.232 1.236 1.893 3.131 1.893 5.781h1c0-2.803-.7-4.997-2.185-6.488-1.486-1.49-3.675-2.191-6.472-2.191v.5zm8.157 8.18h-.5v3.82h1v-3.82h-.5zm-21.75 7.196v.5H54.14v-1H40.805v.5zm13.336 0v.5c1.336 0 2.42-.29 3.119-.99l-.354-.354-.353-.354c-.426.426-1.186.698-2.412.698v.5zm2.765-.844l.354.353c.7-.7.99-1.783.99-3.119h-1c0 1.227-.272 1.987-.697 2.412l.353.354zm.844-2.766h.5v-3.351h-1v3.351h.5zm0-3.351h.5c0-1.336-.29-2.42-.99-3.12l-.354.354-.353.354c.425.425.697 1.185.697 2.412h.5zm-.844-2.766l.354-.353c-.7-.7-1.783-.99-3.12-.99v1c1.227 0 1.987.271 2.413.697l.353-.354zm-2.765-.844v-.5H40.805v1H54.14v-.5zm-13.336 0h-.5v10.57h1V7.196h-.5zm50.343 15.211l-.08-.493-.651.107.278.597.453-.21zM97.477 36v.5h.784l-.331-.711-.453.211zm-5.32 0l-.454.21.134.29h.32V36zm-6.235-13.43l.453-.21-.134-.29h-.32v.5zm-10.524 0v-.5h-.5v.5h.5zm0 13.43v.5h.5V36h-.5zm-4.804 0h-.5v.5h.5V36zm0-33.61v-.5h-.5v.5h.5zm4.804 15.376h-.5v.5h.5v-.5zm0-10.57v-.5h-.5v.5h.5zm21.75 7.195h-.5c0 2.278-.486 3.999-1.4 5.22-.907 1.21-2.279 1.99-4.18 2.302l.08.493.081.494c2.099-.345 3.726-1.23 4.82-2.69 1.086-1.451 1.6-3.41 1.6-5.82h-.5zm-6 8.015l-.453.211 6.328 13.594.454-.211.453-.211-6.328-13.594-.454.211zM97.477 36v-.5h-5.32v1h5.32V36zm-5.32 0l.453-.21-6.235-13.43-.453.21-.454.21 6.235 13.43.453-.21zm-6.235-13.43v-.5H75.398v1h10.524v-.5zm-10.524 0h-.5V36h1V22.57h-.5zm0 13.43v-.5h-4.804v1h4.804V36zm-4.804 0h.5V2.39h-1V36h.5zm0-33.61v.5h18.398v-1H70.594v.5zm18.398 0v.5c2.641 0 4.53.662 5.763 1.899 1.233 1.236 1.893 3.131 1.893 5.781h1c0-2.803-.699-4.997-2.185-6.488-1.486-1.49-3.675-2.191-6.47-2.191v.5zm8.156 8.18h-.5v3.82h1v-3.82h-.5zm-21.75 7.196v.5h13.336v-1H75.398v.5zm13.336 0v.5c1.337 0 2.42-.29 3.12-.99l-.354-.354-.354-.354c-.425.426-1.185.698-2.412.698v.5zm2.766-.844l.354.353c.7-.7.99-1.783.99-3.119h-1c0 1.227-.272 1.987-.698 2.412l.354.354zm.844-2.766h.5v-3.351h-1v3.351h.5zm0-3.351h.5c0-1.336-.29-2.42-.99-3.12l-.354.354-.354.354c.426.425.698 1.185.698 2.412h.5zM91.5 8.039l.354-.353c-.7-.7-1.784-.99-3.12-.99v1c1.227 0 1.987.271 2.412.697l.354-.354zm-2.766-.844v-.5H75.398v1h13.336v-.5zm-13.336 0h-.5v10.57h1V7.196h-.5zm58.219 25.875l.459.199.002-.005-.461-.194zm-2.578 2.555l-.194-.46-.004.001.198.459zm-22.922 0l-.198.459.004.002.194-.461zm-2.555-2.555l-.46.194.002.005.458-.199zm0-27.726l.459.198.002-.004-.461-.194zm1.032-1.524l.347.36.006-.006-.353-.354zm1.523-1.03l.199.458.005-.003-.204-.456zm22.922 0l-.209.453.008.004.007.003.194-.46zm1.547 1.03l-.354.354.007.006.347-.36zm1.031 1.524l-.461.194.002.004.459-.198zm-23.625 1.851v-.5h-.5v.5h.5zm0 24h-.5v.5h.5v-.5zm19.196 0v.5h.5v-.5h-.5zm0-24h.5v-.5h-.5v.5zm4.804 24h-.5c0 .591-.112 1.15-.336 1.681l.461.194.461.194a5.289 5.289 0 00.414-2.069h-.5zm-.375 1.875l-.459-.198a4.357 4.357 0 01-.926 1.368l.354.354.353.353a5.353 5.353 0 001.137-1.678l-.459-.199zm-1.031 1.524l-.354-.354c-.39.39-.85.698-1.387.924l.194.461.194.46a5.287 5.287 0 001.706-1.138l-.353-.353zm-1.547 1.031l-.198-.459a4.12 4.12 0 01-1.653.334v1c.721 0 1.406-.138 2.05-.416l-.199-.459zm-1.851.375v-.5h-19.196v1h19.196V36zm-19.196 0v-.5c-.591 0-1.15-.112-1.681-.336l-.194.461-.194.46a5.283 5.283 0 002.069.415V36zm-1.875-.375l.199-.459a4.358 4.358 0 01-1.369-.926l-.353.354-.354.353a5.364 5.364 0 001.679 1.137l.198-.459zm-1.523-1.031l.353-.354a4.374 4.374 0 01-.926-1.368l-.459.198-.458.199a5.35 5.35 0 001.136 1.678l.354-.353zm-1.032-1.524l.461-.194a4.294 4.294 0 01-.335-1.68h-1c0 .72.137 1.412.414 2.068l.46-.194zm-.374-1.875h.5v-24h-1v24h.5zm0-24h.5c0-.59.112-1.14.333-1.653l-.459-.198-.458-.199a5.101 5.101 0 00-.416 2.05h.5zm.374-1.851l.461.194c.226-.535.532-.986.918-1.358l-.347-.36-.347-.36a5.021 5.021 0 00-1.145 1.69l.46.194zm1.032-1.524l.353.354c.392-.392.847-.7 1.369-.926l-.199-.459-.198-.459a5.365 5.365 0 00-1.679 1.137l.354.353zm1.523-1.03l.204.455a4.044 4.044 0 011.671-.354v-1c-.726 0-1.42.147-2.079.442l.204.456zm1.875-.4v.5h19.196v-1h-19.196v.5zm19.196 0v.5c.586 0 1.132.119 1.642.353l.209-.454.209-.454a4.885 4.885 0 00-2.06-.444v.5zm1.851.4l-.194.46c.537.226.997.534 1.387.924l.354-.354.353-.353a5.288 5.288 0 00-1.706-1.139l-.194.461zm1.547 1.03l-.347.36c.386.372.692.823.917 1.358l.461-.194.461-.194a5.036 5.036 0 00-1.145-1.69l-.347.36zm1.031 1.524l-.459.198a4.11 4.11 0 01.334 1.653h1c0-.721-.138-1.406-.416-2.05l-.459.199zm.375 1.851h-.5v24h1v-24h-.5zm-24 0h-.5v24h1v-24h-.5zm0 24v.5h19.196v-1h-19.196v.5zm19.196 0h.5v-24h-1v24h.5zm0-24v-.5h-19.196v1h19.196v-.5zm34.007 15.211l-.081-.493-.65.107.278.597.453-.21zM169.523 36v.5h.785l-.331-.711-.454.211zm-5.32 0l-.453.21.134.29h.319V36zm-6.234-13.43l.453-.21-.134-.29h-.319v.5zm-10.524 0v-.5h-.5v.5h.5zm0 13.43v.5h.5V36h-.5zm-4.804 0h-.5v.5h.5V36zm0-33.61v-.5h-.5v.5h.5zm4.804 15.376h-.5v.5h.5v-.5zm0-10.57v-.5h-.5v.5h.5zm21.75 7.195h-.5c0 2.278-.486 3.999-1.4 5.22-.907 1.21-2.279 1.99-4.181 2.302l.081.493.081.494c2.099-.345 3.726-1.23 4.82-2.69 1.086-1.451 1.599-3.41 1.599-5.82h-.5zm-6 8.015l-.453.211 6.328 13.594.453-.211.454-.211-6.328-13.594-.454.211zM169.523 36v-.5h-5.32v1h5.32V36zm-5.32 0l.454-.21-6.235-13.43-.453.21-.454.21 6.235 13.43.453-.21zm-6.234-13.43v-.5h-10.524v1h10.524v-.5zm-10.524 0h-.5V36h1V22.57h-.5zm0 13.43v-.5h-4.804v1h4.804V36zm-4.804 0h.5V2.39h-1V36h.5zm0-33.61v.5h18.398v-1h-18.398v.5zm18.398 0v.5c2.641 0 4.531.662 5.763 1.899 1.233 1.236 1.893 3.131 1.893 5.781h1c0-2.803-.699-4.997-2.185-6.488-1.486-1.49-3.675-2.191-6.471-2.191v.5zm8.156 8.18h-.5v3.82h1v-3.82h-.5zm-21.75 7.196v.5h13.336v-1h-13.336v.5zm13.336 0v.5c1.336 0 2.42-.29 3.119-.99l-.353-.354-.354-.354c-.425.426-1.185.698-2.412.698v.5zm2.766-.844l.353.353c.7-.7.991-1.783.991-3.119h-1c0 1.227-.272 1.987-.698 2.412l.354.354zm.844-2.766h.5v-3.351h-1v3.351h.5zm0-3.351h.5c0-1.336-.291-2.42-.991-3.12l-.353.354-.354.354c.426.425.698 1.185.698 2.412h.5zm-.844-2.766l.353-.353c-.699-.7-1.783-.99-3.119-.99v1c1.227 0 1.987.271 2.412.697l.354-.354zm-2.766-.844v-.5h-13.336v1h13.336v-.5zm-13.336 0h-.5v10.57h1V7.196h-.5z" fill="#15D681"/><defs><filter id="a" x="3.813" y="1.891" width="166.495" height="38.609" filterUnits="userSpaceOnUse" color-interpolation-filters="sRGB"><feFlood flood-opacity="0" result="BackgroundImageFix"/><feBlend in="SourceGraphic" in2="BackgroundImageFix" result="shape"/><feColorMatrix in="SourceAlpha" values="0 0 0 0 0 0 0 0 0 0 0 0 0 0 0 0 0 0 127 0" result="hardAlpha"/><feOffset dy="4"/><feGaussianBlur stdDeviation="2"/><feComposite in2="hardAlpha" operator="arithmetic" k2="-1" k3="1"/><feColorMatrix values="0 0 0 0 0 0 0 0 0 0 0 0 0 0 0 0 0 0 0.25 0"/><feBlend in2="shape" result="effect1_innerShadow_320_3"/></filter></defs></svg>